<?xml version="1.0" encoding="utf-8"?>
<!-- Generator: Adobe Illustrator 26.3.1, SVG Export Plug-In . SVG Version: 6.00 Build 0)  -->
<svg version="1.1" id="Layer_1" xmlns="http://www.w3.org/2000/svg" xmlns:xlink="http://www.w3.org/1999/xlink" x="0px" y="0px"
	 viewBox="0 0 699.14 267.5" style="enable-background:new 0 0 699.14 267.5;" xml:space="preserve">
<style type="text/css">
	.st0{opacity:0.4;fill:none;stroke:#000000;stroke-miterlimit:10;}
	.st1{fill:none;}
	.st2{fill:#7C7777;}
	.st3{font-family:'MuseoSans-300';}
	.st4{font-size:10px;}
	.st5{opacity:0.5;fill:#1A3763;}
	.st6{opacity:0.5;fill:#00ACBB;}
	.st7{opacity:0.5;fill:#F48421;}
	.st8{opacity:0.5;fill:#510F34;}
	.st9{font-family:'MuseoSansDisplay-Hairline';}
</style>
<line class="st0" x1="29.67" y1="214.73" x2="621.73" y2="215.05"/>
<line class="st1" x1="52.4" y1="209.1" x2="52.3" y2="218.62"/>
<line class="st2" x1="50.73" y1="214.26" x2="50.63" y2="223.78"/>
<line class="st2" x1="96.75" y1="214.72" x2="96.66" y2="224.25"/>
<line class="st2" x1="142.78" y1="215.19" x2="142.68" y2="224.71"/>
<line class="st2" x1="188.81" y1="215.66" x2="188.71" y2="225.18"/>
<line class="st2" x1="234.85" y1="214.68" x2="234.75" y2="224.2"/>
<line class="st2" x1="280.87" y1="215.15" x2="280.78" y2="224.67"/>
<line class="st2" x1="326.9" y1="215.62" x2="326.8" y2="225.14"/>
<line class="st2" x1="372.93" y1="215.41" x2="372.83" y2="224.93"/>
<line class="st2" x1="418.96" y1="215.2" x2="418.87" y2="224.72"/>
<line class="st2" x1="465" y1="214.71" x2="464.9" y2="224.23"/>
<line class="st2" x1="511.03" y1="214.55" x2="510.93" y2="224.07"/>
<text transform="matrix(1 0 0 1 38.8164 236.7565)" class="st3 st4">2010</text>
<text transform="matrix(1 0 0 1 85.7727 236.7563)" class="st3 st4">2011</text>
<text transform="matrix(1 0 0 1 131.439 236.7565)" class="st3 st4">2012</text>
<text transform="matrix(1 0 0 1 177.6151 236.7565)" class="st3 st4">2013</text>
<text transform="matrix(1 0 0 1 223.6862 236.7567)" class="st3 st4">2014</text>
<text transform="matrix(1 0 0 1 269.9577 236.7566)" class="st3 st4">2015</text>
<text transform="matrix(1 0 0 1 315.9332 236.7564)" class="st3 st4">2016</text>
<text transform="matrix(1 0 0 1 362.4695 236.7564)" class="st3 st4">2017</text>
<text transform="matrix(1 0 0 1 408.2209 236.7564)" class="st3 st4">2018</text>
<text transform="matrix(1 0 0 1 454.4222 236.7564)" class="st3 st4">2019</text>
<text transform="matrix(1 0 0 1 499.9331 236.7564)" class="st3 st4">2020</text>
<rect x="79.87" y="211.61" class="st5" width="146.6" height="6.55"/>
<rect x="96.63" y="200.85" class="st6" width="230.21" height="6.55"/>
<rect x="447.18" y="190.1" class="st7" width="81.04" height="6.55"/>
<rect x="455.02" y="178.64" class="st8" width="45.51" height="6.55"/>
<line class="st2" x1="84.72" y1="72.1" x2="84.63" y2="211.61"/>
<text transform="matrix(1 0 0 1 93.0139 80.1734)" class="st3 st4">Nurse Triage Program ($50K)</text>
<text transform="matrix(1 0 0 1 93.0143 96.2376)"><tspan x="0" y="0" class="st9 st4">Trained nurses responded to some 911 calls (answering medical </tspan><tspan x="0" y="12" class="st9 st4">questions by phone) and eliminated the need for police or EMS </tspan><tspan x="0" y="24" class="st9 st4">dispatch in some cases</tspan></text>
<text transform="matrix(1 0 0 1 108.2324 144.8671)" class="st3 st4">Domestic Violence Victim Advocates </text>
<line class="st2" x1="101.55" y1="137.84" x2="101.51" y2="200.85"/>
<text transform="matrix(1 0 0 1 108.2326 159.4965)"><tspan x="0" y="0" class="st9 st4">Three domestic violence victim advocates from the Center for </tspan><tspan x="0" y="12" class="st9 st4">Women and Families accompanied LMPD detectives during </tspan><tspan x="0" y="24" class="st9 st4">investigations</tspan></text>
<text transform="matrix(1 0 0 1 460.0533 32.8703)"><tspan x="0" y="0" class="st3 st4">Law Enforcement Assisted </tspan><tspan x="0" y="12" class="st3 st4">Diversion ($400K)</tspan></text>
<text transform="matrix(1 0 0 1 460.0535 60.5481)"><tspan x="0" y="0" class="st9 st4">Various community stakeholders sponsored </tspan><tspan x="0" y="12" class="st9 st4">pre-booking intervention services for individuals </tspan><tspan x="0" y="24" class="st9 st4">who had committed low-level crimes and </tspan><tspan x="0" y="36" class="st9 st4">were struggling with opioid addiction </tspan></text>
<line class="st2" x1="556.87" y1="214.88" x2="556.78" y2="224.4"/>
<text transform="matrix(1 0 0 1 545.7759 237.087)" class="st3 st4">2021</text>
<line class="st2" x1="601.6" y1="214.72" x2="601.5" y2="224.24"/>
<text transform="matrix(1 0 0 1 590.499 236.9217)" class="st3 st4">2022</text>
<text transform="matrix(1 0 0 1 464.5504 124.3837)" class="st3 st4">The Living Room ($975K)</text>
<text transform="matrix(1 0 0 1 464.5505 140.0918)"><tspan x="0" y="0" class="st9 st4">The Living Room housed about 1,000 </tspan><tspan x="0" y="12" class="st9 st4">individuals in behavioral health crisis who </tspan><tspan x="0" y="24" class="st9 st4">would otherwise have been in jail </tspan></text>
<line class="st2" x1="450.47" y1="25.79" x2="450.36" y2="190.11"/>
<line class="st2" x1="459.08" y1="116.31" x2="459.03" y2="178.64"/>
</svg>
